# xmcd
#
# Track frame offsets: 
#        150
#        14388
#        26512
#        37511
#        54964
#        67051
#        78842
#        92725
#        109390
#        122057
#        136003
#
# Disc length: 2051 seconds
#
# Revision: 0
# Processed by: cddbd v1.5.1PL0 Copyright (c) Steve Scherf et al.
# Submitted via: ExactAudioCopy v0.95a3
#
DISCID=8008010b
DTITLE=Danni Leigh - Just Like New
DYEAR=2004
DGENRE=
TTITLE0=Teardrops Teardrops
TTITLE1=Little Things
TTITLE2=Beating My Head Against the Wall
TTITLE3=29 Nights
TTITLE4=Longnecks Cigarettes
TTITLE5=Ol' Lonesome
TTITLE6=Cruel Heart
TTITLE7=Last Train to San Antone
TTITLE8=Honey I Do
TTITLE9=Chain Me To The Railroad Tracks
TTITLE10=Wewn't You The One
EXTD=
EXTT0=
EXTT1=
EXTT2=
EXTT3=
EXTT4=
EXTT5=
EXTT6=
EXTT7=
EXTT8=
EXTT9=
EXTT10=
PLAYORDER=
